<?xml version="1.0" standalone="no"?>
<!DOCTYPE svg PUBLIC "-//W3C//DTD SVG 20010904//EN"
 "http://www.w3.org/TR/2001/REC-SVG-20010904/DTD/svg10.dtd">
<svg version="1.0" xmlns="http://www.w3.org/2000/svg"
 width="1000.000000pt" height="1000.000000pt" viewBox="0 0 1000.000000 1000.000000"
 preserveAspectRatio="xMidYMid meet">
<metadata>
Created by potrace 1.14, written by Peter Selinger 2001-2017
</metadata>
<g transform="translate(0.000000,1000.000000) scale(0.100000,-0.100000)"
fill="#000000" stroke="none">
<path d="M0 5000 l0 -5000 5000 0 5000 0 0 5000 0 5000 -5000 0 -5000 0 0
-5000z m5118 3230 c131 -17 231 -63 262 -121 36 -67 -118 -151 -304 -165 -140
-11 -303 27 -372 88 -94 82 24 173 261 201 58 7 71 7 153 -3z m-514 -209 c81
-155 475 -213 716 -105 57 26 140 100 140 125 0 8 27 10 93 7 122 -6 191 -33
261 -101 61 -61 93 -121 106 -203 14 -83 13 -1115 -1 -1189 -23 -123 -97 -222
-207 -273 l-57 -27 -605 -3 c-576 -3 -609 -2 -668 17 -108 33 -195 117 -233
226 -19 54 -19 79 -17 673 3 610 3 618 25 664 12 26 43 70 70 99 77 82 161
117 285 118 76 1 78 0 92 -28z m-556 -873 l2 -368 -48 0 c-26 0 -53 5 -60 12
-9 9 -12 103 -12 360 0 390 -4 370 75 365 l40 -2 3 -367z m2062 357 c16 -20
15 -692 -2 -712 -6 -7 -30 -13 -54 -13 l-44 0 0 370 0 370 44 0 c26 0 48 -6
56 -15z m-2632 -261 c13 -9 31 -32 39 -52 13 -32 14 -42 2 -77 -30 -85 -129
-110 -191 -47 -100 100 31 254 150 176z m3233 3 c68 -42 62 -164 -11 -202
-115 -59 -225 82 -140 179 17 19 41 37 53 39 28 6 76 -2 98 -16z m-3969 -1105
c3 -73 8 -106 21 -126 51 -77 151 -87 215 -23 34 34 37 42 40 107 l4 70 55 0
55 0 -4 -92 c-5 -104 -23 -151 -80 -205 -98 -94 -260 -87 -349 14 -51 59 -62
96 -67 231 l-4 122 55 0 55 0 4 -98z m4676 -29 c-4 -142 -16 -179 -80 -240
-66 -64 -178 -85 -260 -49 -99 43 -146 121 -155 257 l-6 89 55 0 55 0 5 -65
c3 -36 13 -76 22 -90 50 -76 150 -86 214 -21 l37 36 3 105 4 105 55 0 55 0 -4
-127z m-2268 -188 l0 -115 -120 0 -120 0 0 115 0 115 120 0 120 0 0 -115z
m115 -205 c363 -33 670 -109 808 -199 141 -92 251 -246 294 -411 22 -86 22
-235 0 -320 -60 -224 -251 -592 -439 -841 -143 -191 -346 -406 -490 -520 -106
-83 -269 -139 -407 -139 -192 1 -336 64 -516 228 -360 327 -663 781 -807 1206
-111 327 32 682 334 830 144 71 455 141 728 165 139 12 369 12 495 1z m-628
-2408 c12 -9 23 -28 25 -42 13 -102 501 -138 683 -50 42 20 63 49 51 69 -3 5
6 17 21 26 26 18 28 17 80 -10 60 -31 121 -93 154 -157 34 -64 39 -224 10
-339 -34 -137 -92 -240 -191 -340 -133 -133 -266 -192 -435 -193 -112 -1 -177
15 -284 67 -234 113 -393 397 -379 672 3 67 10 90 38 143 36 68 88 119 154
151 50 24 46 24 73 3z"/>
<path d="M4934 7676 c-239 -54 -397 -281 -364 -519 38 -262 293 -440 552 -386
89 19 158 58 229 128 147 148 180 352 85 539 -90 178 -308 281 -502 238z m262
-113 c230 -118 281 -420 102 -604 -183 -189 -491 -138 -614 102 -39 77 -46
208 -14 292 39 105 111 179 216 223 52 22 71 24 154 21 83 -3 103 -7 156 -34z"/>
<path d="M4936 7364 c-57 -21 -102 -58 -133 -112 -24 -40 -28 -58 -28 -123 0
-67 4 -81 30 -124 103 -166 337 -162 430 7 37 66 41 159 10 223 -57 115 -192
172 -309 129z m180 -101 c60 -39 82 -144 43 -212 -30 -54 -64 -74 -131 -79
-50 -4 -64 -1 -98 22 -151 100 -54 333 123 294 21 -5 50 -16 63 -25z"/>
<path d="M5080 7214 c0 -29 -31 -54 -67 -54 -29 0 -56 20 -65 50 -7 21 -48
-48 -48 -80 0 -39 37 -90 77 -107 47 -19 102 -5 132 34 31 38 29 113 -4 150
-23 26 -24 26 -25 7z"/>
<path d="M4997 6643 c-13 -12 -8 -228 5 -241 18 -18 46 -14 58 7 14 28 13 214
-2 229 -13 13 -50 16 -61 5z"/>
<path d="M4857 6627 c-26 -18 -21 -194 6 -211 12 -8 22 -8 35 0 26 17 31 193
5 211 -9 7 -20 13 -23 13 -3 0 -14 -6 -23 -13z"/>
<path d="M5147 6622 c-13 -14 -17 -38 -17 -96 0 -89 11 -116 45 -116 34 0 45
27 45 112 0 102 -32 146 -73 100z"/>
<path d="M4702 6608 c-13 -13 -17 -146 -4 -164 11 -17 35 -22 55 -12 14 7 17
22 17 86 0 79 -9 102 -40 102 -9 0 -21 -5 -28 -12z"/>
<path d="M5292 6608 c-19 -19 -16 -153 4 -172 18 -19 20 -19 45 -6 16 9 19 22
19 88 0 79 -9 102 -40 102 -9 0 -21 -5 -28 -12z"/>
<path d="M4550 6581 c-16 -30 -12 -107 6 -125 36 -37 74 -6 74 60 0 58 -14 84
-45 84 -14 0 -29 -8 -35 -19z"/>
<path d="M5434 6586 c-3 -7 -4 -39 -2 -71 3 -65 23 -89 56 -69 21 14 30 118
11 140 -15 18 -58 18 -65 0z"/>
<path d="M4515 5121 c-72 -44 -70 -34 -70 -331 l0 -268 25 -27 c52 -56 40 -55
557 -55 544 0 528 -2 571 80 21 42 22 56 22 270 0 214 -1 228 -22 270 -43 82
-26 80 -573 80 -450 0 -482 -1 -510 -19z m990 -51 c44 -17 54 -59 47 -195 l-7
-119 -43 64 c-56 86 -77 110 -95 110 -16 0 -32 -30 -97 -192 -24 -60 -47 -105
-50 -100 -4 4 -24 54 -45 112 -21 58 -46 123 -56 145 -10 22 -25 57 -33 78 -8
20 -21 37 -29 37 -12 0 -43 -87 -79 -222 -7 -27 -15 -48 -19 -48 -3 0 -25 40
-47 89 -48 102 -67 124 -87 98 -7 -10 -41 -83 -76 -162 l-64 -144 -45 132
c-25 73 -49 138 -53 145 -17 26 -38 9 -81 -65 l-46 -78 0 133 0 134 29 29 29
29 461 0 c280 0 470 -4 486 -10z m-320 -377 c54 -152 66 -173 87 -155 8 6 41
78 73 159 32 82 62 152 66 157 4 4 37 -36 73 -90 62 -92 66 -103 66 -155 0
-47 -4 -59 -26 -80 l-26 -24 -475 0 -475 0 -24 28 c-40 47 -34 107 22 206 25
45 49 83 53 85 4 3 28 -60 55 -139 26 -80 52 -147 57 -151 19 -12 38 19 100
164 34 81 65 150 69 155 4 4 28 -40 55 -98 50 -110 63 -128 82 -117 10 6 82
249 83 280 1 7 6 -8 85 -225z"/>
<path d="M4963 4360 c-42 -25 -63 -68 -63 -126 0 -41 5 -51 39 -85 34 -34 44
-39 85 -39 58 0 101 21 126 63 72 118 -69 259 -187 187z m133 -54 c37 -37 42
-62 19 -106 -30 -59 -98 -68 -146 -21 -46 47 -38 115 19 145 43 24 71 19 108
-18z"/>
<path d="M5010 4305 c-7 -8 -19 -15 -26 -15 -15 0 -15 1 -17 -50 -2 -28 3 -37
21 -45 12 -5 22 -13 22 -17 0 -5 8 -8 18 -8 58 1 98 101 47 120 -12 5 -26 14
-30 19 -9 15 -20 14 -35 -4z"/>
</g>
</svg>
