<?xml version="1.0" standalone="no"?>
<!DOCTYPE svg PUBLIC "-//W3C//DTD SVG 20010904//EN"
 "http://www.w3.org/TR/2001/REC-SVG-20010904/DTD/svg10.dtd">
<svg version="1.0" xmlns="http://www.w3.org/2000/svg"
 width="901.000000pt" height="901.000000pt" viewBox="0 0 901.000000 901.000000"
 preserveAspectRatio="xMidYMid meet">
<metadata>
Created by potrace 1.14, written by Peter Selinger 2001-2017
</metadata>
<g transform="translate(0.000000,901.000000) scale(0.100000,-0.100000)"
fill="#000000" stroke="none">
<path d="M6994 8368 c-9 -11 -28 -76 -39 -128 -2 -8 -8 -35 -15 -60 -7 -25
-14 -52 -15 -60 -2 -8 -24 -96 -50 -195 -25 -99 -52 -205 -59 -235 -21 -87
-24 -92 -60 -86 -17 3 -58 10 -91 16 -163 27 -484 30 -611 6 -23 -5 -87 -16
-119 -21 -234 -36 -593 -190 -790 -339 -63 -48 -179 -149 -194 -169 -14 -20
-34 -20 -171 -1 -54 7 -289 8 -340 0 -48 -6 -66 -10 -146 -26 -163 -34 -397
-153 -381 -194 6 -16 42 -23 49 -8 7 17 148 95 183 102 3 0 20 7 38 15 28 12
111 34 192 51 105 22 376 21 486 -2 13 -2 42 -7 64 -10 22 -4 71 -14 108 -23
54 -14 71 -15 85 -5 22 16 3 40 -41 48 -70 13 -80 16 -83 19 -6 5 83 86 151
138 119 91 360 229 399 229 9 0 16 5 16 12 0 6 3 9 6 5 4 -3 25 3 48 15 22 11
41 20 41 18 0 -2 29 6 65 18 101 33 200 56 285 68 22 3 46 7 53 9 66 22 463
22 572 0 14 -3 45 -8 70 -11 80 -11 82 -13 58 -97 -11 -39 -21 -80 -23 -89 -2
-9 -36 -143 -75 -298 -39 -155 -73 -289 -75 -298 -12 -50 -77 -301 -85 -327
-5 -16 -11 -41 -14 -55 -3 -14 -26 -106 -51 -205 -26 -99 -49 -187 -51 -195
-4 -17 -42 -167 -48 -190 -3 -8 -16 -60 -29 -115 -14 -55 -35 -136 -47 -180
-35 -125 -35 -141 -8 -156 23 -13 38 -18 71 -21 9 -1 17 -6 17 -10 0 -4 12 -2
28 3 30 11 106 110 193 249 146 235 307 625 393 950 41 155 42 158 52 135 12
-29 46 -65 75 -80 14 -8 26 -20 26 -27 1 -18 11 -67 21 -103 5 -16 8 -40 7
-52 -1 -13 1 -23 5 -23 4 0 7 -6 7 -12 0 -7 6 -40 12 -73 7 -33 14 -71 17 -85
2 -14 12 -59 20 -100 9 -41 18 -86 20 -100 1 -14 10 -59 19 -100 9 -41 18 -84
20 -95 2 -11 6 -32 9 -47 3 -16 8 -38 10 -50 16 -80 58 -287 63 -308 21 -92
-7 -201 -67 -258 -30 -29 -88 -62 -116 -66 -7 -1 -16 -5 -20 -8 -3 -4 -138 -7
-301 -8 -206 0 -300 -4 -313 -13 -17 -10 -26 -4 -75 50 -30 33 -67 65 -82 71
-45 15 -194 12 -256 -6 -31 -8 -66 -24 -78 -35 -21 -19 -21 -21 -4 -33 12 -9
24 -10 35 -4 64 34 166 48 256 34 42 -6 52 -14 115 -88 70 -82 115 -158 98
-164 -17 -6 -72 39 -112 90 -31 40 -41 47 -53 37 -21 -17 -18 -28 29 -88 49
-63 59 -84 51 -106 -15 -39 -69 8 -105 93 -10 23 -20 32 -34 30 -28 -4 -22
-41 15 -101 35 -57 36 -62 11 -64 -18 -2 -81 57 -81 75 0 4 -10 19 -22 31 -20
22 -22 23 -34 6 -11 -15 -11 -23 4 -49 9 -17 23 -39 31 -48 12 -16 12 -18 -2
-18 -34 0 -70 22 -113 68 -24 26 -44 52 -44 59 0 17 -36 26 -115 29 -38 1 -72
2 -75 3 -8 1 -44 63 -48 81 -8 39 -10 113 -2 140 9 30 -9 58 -29 46 -38 -24
-37 -159 3 -256 6 -13 -68 -15 -642 -15 -701 0 -669 2 -686 -52 -15 -48 63
-168 129 -198 55 -25 77 -27 227 -27 91 0 150 -4 154 -10 4 -6 7 -849 7 -1874
l0 -1865 27 -22 27 -23 1144 1 c629 1 1151 -2 1160 -7 14 -6 26 -47 46 -153 2
-10 10 -29 17 -40 13 -20 21 -20 479 -20 476 0 486 1 493 37 2 7 5 27 9 43 3
17 9 48 15 70 9 37 94 436 104 487 2 13 10 46 16 73 15 63 19 83 26 120 3 17
11 58 19 91 24 103 24 112 9 125 -13 10 -31 8 -97 -14 -91 -29 -145 -43 -197
-52 -19 -3 -47 -8 -62 -11 l-26 -5 15 48 c17 56 91 319 98 348 2 11 16 63 30
115 14 52 27 109 30 125 3 17 12 53 19 80 8 28 19 82 26 120 7 39 15 74 18 79
3 5 7 21 8 35 2 14 6 42 9 61 4 19 8 46 10 60 1 14 5 39 8 55 12 66 25 169 33
265 9 111 11 357 3 420 -4 30 -10 75 -13 100 -6 51 -7 53 -41 217 -14 67 -25
130 -25 141 0 11 -6 25 -14 31 -17 14 -56 -29 -138 -148 -28 -42 -55 -80 -59
-85 -10 -12 -9 955 2 975 7 13 26 17 93 18 98 2 119 5 163 26 43 21 79 69 93
126 14 55 3 85 -36 99 -15 6 -270 10 -626 10 l-600 0 59 44 c136 100 193 220
188 394 -1 49 -5 94 -8 99 -7 11 -17 60 -31 157 -4 21 -8 42 -11 46 -3 4 -7
25 -11 46 -3 22 -13 68 -21 104 -19 84 -22 98 -29 139 -3 19 -9 44 -14 55 -4
12 -8 24 -8 29 0 7 -15 87 -17 97 -8 28 -16 59 -19 80 -8 42 -15 73 -25 115
-50 198 -64 278 -52 294 110 151 -8 336 -191 297 -20 -4 -44 -17 -54 -27 -17
-19 -40 -27 -30 -11 6 10 13 47 22 112 3 25 8 48 10 51 3 5 29 187 48 329 2
19 5 35 5 35 1 0 4 32 6 70 3 39 7 95 9 125 16 180 29 687 18 732 -6 27 -142
58 -158 36z m89 -56 c15 -4 18 -11 12 -36 -3 -17 -9 -42 -11 -55 -3 -14 -7
-28 -10 -33 -3 -4 -7 -16 -9 -25 -1 -10 -26 -108 -55 -218 -51 -199 -87 -336
-94 -365 -2 -8 -18 -71 -36 -140 -17 -69 -33 -132 -35 -140 -39 -156 -128
-499 -132 -510 -7 -17 -9 -24 -17 -60 -3 -14 -12 -54 -21 -90 -9 -36 -18 -72
-20 -80 -2 -8 -4 -15 -5 -15 -1 0 -3 -7 -5 -15 -2 -8 -8 -35 -14 -60 -7 -25
-13 -52 -15 -60 -2 -8 -16 -59 -31 -113 -14 -53 -28 -105 -30 -115 -2 -10 -24
-99 -50 -198 -26 -98 -49 -186 -50 -194 -14 -61 -103 -402 -106 -405 -2 -2
-16 -1 -31 2 -32 6 -34 16 -14 93 37 141 88 342 91 358 1 9 9 37 16 62 7 25
13 50 14 55 2 6 15 58 30 115 15 58 28 112 30 120 2 8 8 35 15 60 7 25 14 52
15 60 2 8 4 15 5 15 1 0 3 9 5 20 3 11 14 56 25 100 12 44 23 89 25 99 3 10 9
33 14 50 6 17 12 45 15 61 3 17 21 91 41 165 20 74 38 146 41 160 12 51 12 55
13 58 1 1 1 4 2 7 0 2 5 19 10 37 9 29 65 249 75 288 4 17 56 222 115 450 22
85 42 163 44 173 2 10 7 28 11 40 4 12 8 31 10 42 2 11 13 56 25 100 11 44 22
85 24 90 13 56 18 66 34 59 9 -3 24 -9 34 -12z m21 -323 c-2 -86 -16 -351 -20
-399 -10 -125 -19 -208 -29 -280 -2 -14 -7 -49 -10 -79 -4 -30 -9 -63 -11 -75
-2 -11 -6 -38 -9 -61 -9 -65 -65 -333 -87 -420 -11 -44 -21 -87 -23 -95 -2 -8
-14 -49 -25 -90 -12 -41 -23 -79 -24 -85 -2 -5 -6 -17 -9 -25 -3 -8 -13 -40
-23 -70 -9 -30 -19 -59 -23 -65 -3 -5 -6 -14 -7 -20 -10 -55 -132 -337 -210
-483 -55 -105 -152 -262 -161 -262 -3 0 -2 12 2 28 4 15 9 36 12 47 5 22 5 24
21 80 6 22 13 51 16 65 2 14 11 47 20 75 8 27 13 51 11 53 -2 3 0 12 5 22 5 9
11 28 14 41 4 23 22 92 111 434 20 77 38 147 41 155 2 8 10 42 19 75 8 33 17
69 20 80 2 11 14 56 25 100 12 44 23 88 25 98 2 10 7 27 10 37 3 10 8 27 10
37 2 10 27 106 55 213 28 107 52 202 54 210 2 8 6 22 9 30 5 12 59 225 72 280
2 8 13 53 25 100 12 47 23 93 25 102 2 9 14 52 26 95 12 43 23 87 25 98 3 26
3 25 12 25 5 0 8 -32 6 -71z m148 -1145 c92 -69 39 -234 -76 -234 -58 0 -119
45 -132 96 -9 35 1 89 23 118 17 23 26 28 78 46 27 9 77 -3 107 -26z m13 -329
c9 -33 18 -69 20 -80 2 -11 6 -27 8 -35 2 -8 7 -33 11 -55 4 -22 11 -56 16
-75 6 -19 12 -46 14 -60 3 -21 19 -89 43 -190 10 -39 12 -53 17 -85 8 -47 17
-88 21 -95 2 -4 7 -22 10 -41 3 -19 9 -47 12 -64 4 -16 8 -34 9 -40 1 -5 3
-12 4 -15 1 -3 3 -14 5 -25 7 -37 17 -90 35 -180 26 -132 19 -234 -22 -322
-39 -84 -165 -190 -247 -210 -14 -3 -31 -10 -37 -15 -6 -4 -145 -7 -308 -6
l-297 3 -22 38 c-13 24 -18 40 -11 47 5 5 124 10 290 10 313 1 341 6 431 65
45 30 101 101 110 140 1 5 6 26 11 45 13 51 8 98 -34 302 -20 101 -38 192 -40
203 -6 42 -33 171 -38 185 -3 8 -7 32 -10 52 -3 21 -11 59 -17 85 -11 51 -28
139 -35 188 -2 16 -7 39 -11 50 -3 11 -7 29 -9 40 -1 11 -7 41 -13 68 -25 108
-25 117 3 118 38 2 44 3 52 12 10 10 11 8 29 -58z m-1225 -1669 c49 -58 75
-84 110 -105 36 -22 85 -27 109 -12 7 5 27 4 45 -1 21 -7 40 -6 61 3 17 6 44
13 60 15 31 3 75 44 75 70 0 8 10 14 24 14 34 0 56 10 56 25 0 10 77 12 360
11 198 0 360 3 360 7 0 5 5 5 11 1 6 -4 275 -6 598 -6 322 0 594 -2 604 -4 12
-4 16 -13 13 -29 -12 -65 -53 -108 -116 -121 -45 -10 -3728 -17 -3749 -8 -9 4
-18 8 -21 8 -20 5 -78 54 -89 75 -21 43 -30 80 -20 83 5 2 341 3 746 3 l738 1
25 -30z m2121 -281 c0 -16 0 -250 1 -518 0 -415 -2 -491 -15 -505 -23 -27
-122 -237 -170 -362 -39 -100 -101 -289 -112 -343 -2 -10 -6 -26 -9 -35 -3 -9
-7 -28 -10 -42 -2 -14 -12 -58 -20 -97 -9 -40 -18 -87 -21 -105 -3 -18 -7 -44
-10 -58 -15 -79 -19 -118 -30 -255 -3 -38 -8 -81 -10 -95 -14 -70 -4 -518 12
-542 2 -5 -3 -11 -12 -15 -10 -3 -20 -1 -24 5 -8 14 -5 483 4 557 3 28 7 73 9
102 7 93 17 188 21 203 2 8 6 33 9 55 7 61 16 113 33 195 8 41 17 84 19 95 8
46 26 121 31 135 3 8 8 23 10 33 1 10 24 79 49 154 l45 137 -16 78 c-46 229
-175 503 -314 668 -72 86 -71 86 -81 69 -27 -43 -121 -398 -135 -509 -3 -24
-7 -46 -9 -49 -4 -5 -7 -31 -22 -156 -12 -104 -18 -177 -18 -222 -1 -29 -3
-53 -6 -53 -12 0 0 -439 15 -560 2 -19 7 -59 10 -89 4 -30 9 -63 11 -75 2 -12
6 -34 9 -51 3 -16 8 -43 12 -60 3 -16 7 -37 8 -45 1 -16 34 -156 41 -180 3 -8
5 -17 6 -20 0 -3 4 -12 9 -21 4 -9 10 -27 13 -40 7 -35 59 -183 95 -267 17
-41 25 -72 19 -70 -16 6 -82 157 -130 296 -42 127 -92 313 -103 387 -3 17 -7
41 -10 55 -16 73 -29 186 -39 332 -2 28 -14 65 -31 95 -31 53 -185 285 -194
293 -5 4 -28 34 -73 95 -29 40 -174 200 -223 246 -85 80 -112 102 -180 143
-89 53 -92 52 -89 -46 1 -46 5 -117 9 -158 4 -41 8 -92 9 -112 0 -21 4 -38 9
-38 4 0 7 -5 7 -11 0 -5 -6 -7 -12 -3 -10 6 -10 5 -2 -7 16 -19 37 -126 28
-140 -4 -8 -3 -9 4 -5 7 4 13 0 14 -11 2 -26 4 -36 12 -54 4 -9 6 -20 5 -25
-2 -5 5 -26 14 -48 20 -44 20 -49 8 -42 -16 10 -6 -20 12 -38 9 -10 17 -28 17
-42 0 -13 4 -24 8 -24 4 0 8 -10 9 -22 1 -11 7 -24 14 -28 8 -6 8 -9 0 -14
-14 -9 -14 -26 0 -26 5 0 7 5 4 10 -3 6 -1 10 5 10 6 0 10 -6 9 -12 -2 -12 14
-59 28 -81 3 -6 2 -7 -4 -4 -5 3 -10 0 -10 -7 0 -8 6 -12 14 -9 9 4 11 0 6
-13 -4 -11 -3 -15 4 -11 6 4 13 -2 16 -12 3 -14 1 -18 -9 -14 -8 3 -14 0 -14
-7 0 -6 4 -9 8 -6 13 8 25 -6 49 -51 12 -25 18 -45 12 -48 -13 -9 -1 -25 14
-19 14 5 40 -53 30 -69 -3 -6 -1 -7 5 -3 6 3 14 -4 18 -16 4 -13 11 -26 17
-30 7 -4 7 -11 -2 -21 -9 -12 -9 -17 0 -23 8 -4 9 -3 5 4 -4 7 -1 12 6 12 16
0 40 -49 31 -63 -3 -6 -1 -7 6 -3 6 4 14 0 18 -11 4 -10 13 -23 21 -29 12 -9
13 -13 2 -19 -9 -6 -11 -4 -5 5 5 9 4 11 -4 6 -16 -10 -4 -26 15 -19 14 5 15
3 5 -15 -14 -26 -14 -43 0 -19 6 9 15 15 20 12 5 -4 6 -12 2 -18 -12 -19 -12
-36 -1 -44 7 -3 8 -1 4 5 -4 7 -1 12 6 12 9 0 9 3 -2 10 -10 7 -11 10 -2 10 7
0 16 -8 19 -17 4 -10 9 -20 12 -23 19 -16 54 -62 44 -56 -7 4 -13 2 -13 -3 0
-6 4 -11 9 -11 19 0 42 -32 36 -51 -4 -11 -2 -19 5 -19 6 0 8 5 5 10 -3 6 -2
10 3 10 15 0 22 -28 9 -34 -7 -3 -3 -4 8 -1 15 3 27 -5 44 -31 14 -19 53 -65
87 -102 34 -37 61 -68 59 -70 -1 -2 -29 4 -61 13 -33 9 -70 17 -84 18 -14 0
-28 5 -32 11 -5 7 -8 4 -8 -6 0 -10 6 -18 13 -18 8 0 7 -3 -3 -9 -8 -6 -19 -7
-25 -5 -5 3 -1 -3 10 -13 11 -10 20 -25 20 -33 -1 -8 5 -32 12 -54 16 -48 16
-56 1 -52 -7 1 -10 1 -6 -1 4 -2 6 -10 4 -16 -1 -7 -1 -9 1 -4 3 4 9 7 14 7 6
0 8 -4 5 -9 -3 -5 1 -28 9 -52 13 -36 37 -140 61 -258 3 -14 7 -28 9 -31 2 -4
7 -20 9 -36 8 -39 12 -58 30 -134 9 -36 16 -67 16 -70 0 -8 -2283 -6 -2296 2
-7 5 -10 540 -10 1795 l1 1788 70 1 c69 1 340 10 605 19 74 3 207 7 295 10 88
3 225 7 305 10 221 8 449 15 615 20 199 6 473 15 615 20 63 3 193 7 289 10 96
3 176 6 177 8 1 1 34 2 73 2 l71 0 1 -30z m-841 -2950 c32 -9 96 -24 124 -29
16 -3 52 -10 80 -16 28 -5 74 -12 101 -15 28 -3 77 -9 110 -12 122 -14 412 -7
501 11 12 2 39 7 60 10 38 7 146 32 174 42 8 3 15 5 15 4 0 -1 13 3 28 9 25
10 28 9 23 -6 -6 -21 -34 -158 -40 -193 -3 -14 -5 -25 -6 -25 -1 0 -3 -8 -5
-17 -2 -9 -8 -40 -15 -70 -6 -29 -14 -64 -16 -78 -3 -14 -14 -63 -24 -110 -10
-47 -21 -98 -25 -115 -3 -16 -14 -68 -25 -115 -11 -47 -22 -98 -25 -115 -9
-57 -14 -78 -20 -84 -4 -3 -203 -6 -443 -6 l-436 0 -13 43 c-6 23 -14 55 -17
70 -3 15 -10 50 -16 77 -6 28 -13 61 -16 73 -3 13 -12 49 -20 80 -8 32 -17 69
-19 84 -2 15 -9 46 -16 70 -13 51 -14 51 -23 103 -5 22 -21 95 -37 163 -16 67
-32 138 -35 157 l-5 34 33 -10 c18 -6 40 -12 48 -14z"/>
<path d="M6435 3330 c-3 -5 -1 -10 4 -10 6 0 11 5 11 10 0 6 -2 10 -4 10 -3 0
-8 -4 -11 -10z"/>
<path d="M6455 3311 c-10 -17 17 -24 31 -7 8 9 9 11 2 6 -16 -13 -31 -13 -23
0 3 6 4 10 1 10 -3 0 -7 -4 -11 -9z"/>
<path d="M6500 3290 c-9 -6 -10 -10 -3 -10 6 0 15 5 18 10 8 12 4 12 -15 0z"/>
<path d="M6430 3280 c0 -5 5 -10 11 -10 5 0 7 5 4 10 -3 6 -8 10 -11 10 -2 0
-4 -4 -4 -10z"/>
<path d="M6510 3263 c5 -2 8 -9 4 -14 -3 -5 1 -12 9 -15 9 -3 13 -14 11 -27
-4 -21 -4 -21 5 -2 7 15 5 23 -8 33 -9 7 -15 16 -13 20 2 3 -1 7 -7 9 -7 1 -8
0 -1 -4z"/>
<path d="M6433 3242 c-22 -17 -22 -17 -2 -41 10 -13 19 -19 19 -13 0 5 -7 15
-15 22 -14 12 -12 15 12 31 15 11 24 19 18 19 -5 0 -20 -8 -32 -18z"/>
<path d="M6453 3226 c-3 -5 -1 -6 5 -2 7 4 12 2 12 -3 0 -6 5 -11 11 -11 5 0
8 4 5 9 -4 5 0 11 6 14 7 3 3 4 -10 4 -13 -1 -26 -6 -29 -11z"/>
<path d="M6413 3179 c-2 -23 3 -25 10 -4 4 8 3 16 -1 19 -4 3 -9 -4 -9 -15z"/>
<path d="M6522 3174 c10 -10 20 -16 22 -13 3 3 -5 11 -17 18 -21 13 -21 12 -5
-5z"/>
<path d="M6470 3166 c7 -7 14 -6 21 1 9 9 7 12 -9 10 -14 -1 -18 -5 -12 -11z"/>
<path d="M6513 3145 c0 -7 6 -11 14 -8 7 3 13 6 13 8 0 2 -6 5 -13 8 -8 3 -14
-1 -14 -8z"/>
<path d="M6436 3136 c10 -8 21 -12 24 -10 5 6 -21 24 -34 24 -6 0 -1 -6 10
-14z"/>
<path d="M6482 3130 c-15 -25 -15 -30 0 -30 6 0 8 3 5 7 -4 3 -2 12 5 20 6 7
9 15 7 18 -3 2 -10 -5 -17 -15z"/>
<path d="M6425 3098 c1 -12 7 -23 14 -24 6 -1 7 0 2 2 -6 3 -8 11 -5 19 3 7 1
15 -4 19 -5 3 -8 -5 -7 -16z"/>
<path d="M6512 3101 c-11 -6 -10 -10 4 -15 9 -3 19 -4 22 -1 3 3 0 5 -7 5 -7
0 -9 5 -6 10 7 12 4 12 -13 1z"/>
<path d="M6460 3086 c0 -2 7 -7 16 -10 8 -3 12 -2 9 4 -6 10 -25 14 -25 6z"/>
<path d="M6553 3073 c4 -3 2 -12 -5 -20 -6 -7 -8 -16 -4 -20 3 -3 6 -1 6 6 0
7 4 10 8 7 4 -2 9 4 9 15 1 10 -3 19 -9 19 -6 0 -8 -3 -5 -7z"/>
<path d="M6426 3052 c-2 -4 4 -8 14 -8 10 0 16 4 14 8 -3 4 -9 8 -14 8 -5 0
-11 -4 -14 -8z"/>
<path d="M6475 3040 c3 -6 1 -10 -6 -10 -7 0 -10 -3 -6 -6 3 -3 13 -2 22 4 16
8 16 9 1 15 -10 4 -15 3 -11 -3z"/>
<path d="M6515 3041 c-3 -5 -2 -12 3 -15 5 -3 9 1 9 9 0 17 -3 19 -12 6z"/>
<path d="M6430 3009 c0 -5 5 -7 10 -4 6 3 10 8 10 11 0 2 -4 4 -10 4 -5 0 -10
-5 -10 -11z"/>
<path d="M6498 3013 c6 -2 12 -9 12 -14 0 -6 -5 -7 -12 -3 -7 5 -8 3 -3 -5 5
-9 11 -9 17 -3 12 12 2 32 -15 31 -9 0 -9 -2 1 -6z"/>
<path d="M6580 3010 c0 -5 5 -10 11 -10 5 0 7 5 4 10 -3 6 -8 10 -11 10 -2 0
-4 -4 -4 -10z"/>
<path d="M6445 2990 c-3 -5 -1 -18 5 -27 9 -15 10 -14 4 6 -4 17 -3 21 6 16 9
-5 11 -4 6 3 -9 15 -13 15 -21 2z"/>
<path d="M6550 2993 c1 -13 30 -48 30 -36 0 7 -5 15 -10 18 -6 4 -8 11 -5 16
4 5 1 9 -4 9 -6 0 -11 -3 -11 -7z"/>
<path d="M6476 2965 c-9 -26 -7 -32 5 -12 6 10 9 21 6 23 -2 3 -7 -2 -11 -11z"/>
<path d="M6516 2964 c-11 -8 -16 -14 -10 -14 13 0 39 18 34 24 -3 2 -14 -2
-24 -10z"/>
<path d="M6593 2955 c0 -8 4 -12 9 -9 5 3 6 10 3 15 -9 13 -12 11 -12 -6z"/>
<path d="M6491 2924 c0 -11 3 -14 6 -6 3 7 2 16 -1 19 -3 4 -6 -2 -5 -13z"/>
<path d="M6550 2929 c0 -5 5 -7 10 -4 6 3 10 8 10 11 0 2 -4 4 -10 4 -5 0 -10
-5 -10 -11z"/>
<path d="M6513 2898 c1 -15 6 -23 11 -18 4 4 4 16 -2 26 -9 16 -10 14 -9 -8z"/>
<path d="M6544 2906 c11 -9 24 -16 30 -16 12 0 7 5 -24 19 -24 11 -24 11 -6
-3z"/>
<path d="M6460 2903 c0 -19 21 -27 33 -13 9 10 9 11 -2 5 -8 -4 -17 -2 -22 6
-6 9 -9 10 -9 2z"/>
<path d="M6597 2890 c7 -26 19 -34 29 -19 4 8 3 9 -4 5 -7 -4 -12 -1 -12 8 0
8 -4 17 -9 20 -5 4 -7 -3 -4 -14z"/>
<path d="M6450 2870 c0 -5 5 -10 11 -10 5 0 7 5 4 10 -3 6 -8 10 -11 10 -2 0
-4 -4 -4 -10z"/>
<path d="M6550 2860 c-6 -11 -8 -20 -6 -20 3 0 10 9 16 20 6 11 8 20 6 20 -3
0 -10 -9 -16 -20z"/>
<path d="M6491 2865 c0 -5 3 -16 8 -23 7 -11 9 -10 14 3 4 9 3 14 -2 10 -5 -3
-12 1 -14 7 -3 7 -6 9 -6 3z"/>
<path d="M6586 2845 c10 -8 23 -15 28 -15 6 0 1 7 -10 15 -10 8 -23 15 -28 15
-6 0 -1 -7 10 -15z"/>
<path d="M6466 2828 c3 -4 9 -8 15 -8 5 0 9 4 9 8 0 5 -7 9 -15 9 -8 0 -12 -4
-9 -9z"/>
<path d="M6558 2815 c-6 -13 -15 -22 -21 -18 -6 4 -7 1 -2 -7 6 -10 11 -9 22
5 7 11 13 23 13 28 0 4 5 5 12 1 7 -4 8 -3 4 4 -10 17 -15 15 -28 -13z"/>
<path d="M6495 2810 c-3 -5 -1 -10 4 -10 6 0 11 5 11 10 0 6 -2 10 -4 10 -3 0
-8 -4 -11 -10z"/>
<path d="M6600 2805 c-19 -22 -8 -25 13 -3 9 10 13 18 8 18 -5 0 -14 -7 -21
-15z"/>
<path d="M6508 2782 c8 -5 13 -13 12 -18 -1 -5 4 -10 12 -12 11 -3 11 -2 0 6
-8 5 -13 13 -12 18 1 5 -4 10 -12 12 -11 3 -11 2 0 -6z"/>
<path d="M6612 2770 c0 -14 2 -19 5 -12 2 6 2 18 0 25 -3 6 -5 1 -5 -13z"/>
<path d="M6565 2770 c3 -5 8 -10 11 -10 2 0 4 5 4 10 0 6 -5 10 -11 10 -5 0
-7 -4 -4 -10z"/>
<path d="M6486 2752 c-3 -5 1 -9 9 -9 8 0 12 4 9 9 -3 4 -7 8 -9 8 -2 0 -6 -4
-9 -8z"/>
<path d="M6590 2751 c0 -10 29 -36 34 -30 1 2 -6 12 -16 22 -10 9 -18 13 -18
8z"/>
<path d="M6520 2730 c-8 -5 -10 -10 -5 -10 6 0 17 5 25 10 8 5 11 10 5 10 -5
0 -17 -5 -25 -10z"/>
<path d="M6557 2723 c-4 -6 0 -13 8 -17 8 -3 17 0 21 6 4 6 3 8 -4 4 -5 -3
-12 -1 -14 6 -3 8 -6 9 -11 1z"/>
<path d="M6490 2710 c0 -5 5 -10 11 -10 5 0 7 5 4 10 -3 6 -8 10 -11 10 -2 0
-4 -4 -4 -10z"/>
<path d="M6526 2693 c-8 -20 9 -40 19 -22 6 8 4 10 -5 4 -9 -5 -10 -2 -5 14 8
25 0 29 -9 4z"/>
<path d="M6595 2700 c-3 -6 1 -7 9 -4 18 7 21 14 7 14 -6 0 -13 -4 -16 -10z"/>
<path d="M6650 2692 c0 -5 7 -9 15 -9 8 0 12 4 9 9 -3 4 -9 8 -15 8 -5 0 -9
-4 -9 -8z"/>
<path d="M6575 2669 c-6 -8 -4 -10 5 -4 9 5 10 1 6 -16 -6 -21 -6 -22 5 -6 7
13 8 22 1 29 -6 6 -12 6 -17 -3z"/>
<path d="M6634 2662 c4 -7 1 -12 -6 -12 -8 0 -6 -5 5 -11 10 -6 21 -8 24 -5 4
3 1 6 -6 6 -7 0 -10 4 -6 9 3 5 0 13 -6 17 -8 4 -9 3 -5 -4z"/>
<path d="M6676 2637 c3 -10 9 -15 12 -12 3 3 0 11 -7 18 -10 9 -11 8 -5 -6z"/>
<path d="M6555 2630 c3 -5 8 -10 11 -10 2 0 4 5 4 10 0 6 -5 10 -11 10 -5 0
-7 -4 -4 -10z"/>
<path d="M6530 2616 c0 -2 7 -7 16 -10 8 -3 12 -2 9 4 -6 10 -25 14 -25 6z"/>
<path d="M6584 2612 c4 -3 14 -7 22 -8 9 -1 13 0 10 4 -4 3 -14 7 -22 8 -9 1
-13 0 -10 -4z"/>
<path d="M6644 2612 c4 -3 14 -7 22 -8 9 -1 13 0 10 4 -4 3 -14 7 -22 8 -9 1
-13 0 -10 -4z"/>
<path d="M6707 2609 c7 -7 15 -10 18 -7 3 3 -2 9 -12 12 -14 6 -15 5 -6 -5z"/>
<path d="M6544 2586 c11 -9 24 -16 30 -16 12 0 7 5 -24 19 -24 11 -24 11 -6
-3z"/>
<path d="M6630 2595 c0 -5 5 -17 10 -25 5 -8 10 -10 10 -5 0 6 -5 17 -10 25
-5 8 -10 11 -10 5z"/>
<path d="M6606 2573 c-8 -20 9 -40 19 -22 6 8 4 10 -5 4 -9 -5 -10 -2 -5 14 8
25 0 29 -9 4z"/>
<path d="M6676 2576 c10 -8 21 -12 24 -10 5 6 -21 24 -34 24 -6 0 -1 -6 10
-14z"/>
<path d="M6666 2533 c-6 -14 -5 -15 5 -6 7 7 10 15 7 18 -3 3 -9 -2 -12 -12z"/>
<path d="M6731 2534 c0 -11 3 -14 6 -6 3 7 2 16 -1 19 -3 4 -6 -2 -5 -13z"/>
<path d="M6634 2532 c3 -5 0 -13 -6 -15 -10 -4 -10 -6 0 -6 7 -1 10 -5 7 -11
-4 -6 1 -7 11 -3 11 4 13 8 6 11 -7 2 -10 8 -7 12 3 5 0 12 -6 16 -7 4 -9 3
-5 -4z"/>
<path d="M6668 2498 c-10 -10 -14 -18 -9 -18 10 0 36 29 30 34 -2 1 -12 -6
-21 -16z"/>
<path d="M6703 2500 c2 -8 10 -15 17 -15 7 0 15 7 17 15 4 13 3 13 -6 0 -10
-13 -12 -13 -22 0 -9 13 -10 13 -6 0z"/>
<path d="M6570 2489 c0 -5 5 -7 10 -4 6 3 10 8 10 11 0 2 -4 4 -10 4 -5 0 -10
-5 -10 -11z"/>
<path d="M6600 2485 c-7 -8 -9 -15 -5 -15 4 0 1 -8 -6 -17 -13 -16 -12 -17 4
-4 9 8 15 16 12 19 -3 3 0 11 6 19 6 7 9 13 6 13 -2 0 -10 -7 -17 -15z"/>
<path d="M6694 2472 c4 -7 3 -12 -2 -12 -6 0 -12 -7 -15 -14 -4 -10 -1 -13 8
-10 18 7 27 32 13 40 -7 4 -8 3 -4 -4z"/>
<path d="M6739 2478 c-4 -15 -6 -50 -3 -40 3 6 10 10 15 6 5 -3 9 0 9 5 0 6
-5 11 -11 11 -5 0 -7 5 -4 10 3 6 4 10 1 10 -3 0 -6 -1 -7 -2z"/>
<path d="M6626 2454 c-14 -14 -14 -34 0 -34 3 0 2 5 -1 10 -3 6 -2 10 3 10 6
0 12 7 16 15 7 19 1 19 -18 -1z"/>
<path d="M6785 2446 c10 -14 19 -26 22 -26 7 0 -17 39 -28 46 -6 3 -3 -5 6
-20z"/>
<path d="M6753 2402 c-1 -22 0 -24 9 -8 6 10 6 22 2 26 -5 5 -10 -3 -11 -18z"/>
<path d="M6601 2404 c0 -11 3 -14 6 -6 3 7 2 16 -1 19 -3 4 -6 -2 -5 -13z"/>
<path d="M6705 2409 c-4 -6 -4 -13 -1 -16 3 -4 6 -1 6 6 0 8 6 11 16 7 8 -3
12 -2 9 4 -8 13 -22 13 -30 -1z"/>
<path d="M6675 2401 c-3 -5 -2 -12 3 -15 5 -3 9 1 9 9 0 17 -3 19 -12 6z"/>
<path d="M6630 2390 c-8 -5 -10 -10 -5 -10 6 0 17 5 25 10 8 5 11 10 5 10 -5
0 -17 -5 -25 -10z"/>
<path d="M6774 2388 c-4 -7 -4 -10 1 -6 4 4 14 0 21 -10 7 -9 14 -12 14 -6 0
6 -6 17 -14 23 -11 9 -16 9 -22 -1z"/>
<path d="M6730 2380 c0 -5 9 -14 20 -20 11 -6 20 -9 20 -8 0 2 -9 11 -20 21
-11 9 -20 13 -20 7z"/>
<path d="M6650 2372 c0 -5 7 -9 15 -9 8 0 12 4 9 9 -3 4 -9 8 -15 8 -5 0 -9
-4 -9 -8z"/>
<path d="M6713 2365 c3 -24 26 -65 27 -48 0 6 -5 15 -10 18 -6 4 -8 10 -6 14
3 4 0 13 -5 21 -7 12 -8 11 -6 -5z"/>
<path d="M6633 2335 c0 -8 4 -15 9 -15 4 0 8 4 8 9 0 6 -4 12 -8 15 -5 3 -9
-1 -9 -9z"/>
<path d="M6676 2336 c10 -8 21 -12 24 -10 5 6 -21 24 -34 24 -6 0 -1 -6 10
-14z"/>
<path d="M6826 2334 c-4 -9 -4 -19 -1 -22 3 -3 5 0 5 7 0 7 4 10 8 7 5 -3 9 1
9 9 0 20 -13 19 -21 -1z"/>
<path d="M6753 2315 c0 -7 6 -11 14 -8 7 3 13 6 13 8 0 2 -6 5 -13 8 -8 3 -14
-1 -14 -8z"/>
<path d="M6795 2321 c-3 -5 -2 -12 3 -15 5 -3 9 1 9 9 0 17 -3 19 -12 6z"/>
<path d="M6655 2309 c-6 -8 -4 -10 5 -4 9 5 10 1 6 -16 -6 -21 -6 -22 5 -6 7
13 8 22 1 29 -6 6 -12 6 -17 -3z"/>
<path d="M6713 2308 c3 -9 1 -19 -6 -21 -7 -3 -2 -4 10 -4 18 1 20 4 10 17
-19 25 -20 26 -14 8z"/>
<path d="M6833 2295 c-3 -9 -3 -18 -1 -21 3 -3 8 4 11 16 6 23 -1 27 -10 5z"/>
<path d="M6771 2283 c0 -11 3 -13 6 -5 2 6 10 9 15 6 7 -4 8 -2 4 4 -11 18
-26 14 -25 -5z"/>
<path d="M6750 2271 c0 -10 29 -36 34 -30 1 2 -6 12 -16 22 -10 9 -18 13 -18
8z"/>
<path d="M6870 2271 c0 -6 4 -13 10 -16 6 -3 7 1 4 9 -7 18 -14 21 -14 7z"/>
<path d="M6796 2257 c3 -10 9 -15 12 -12 3 3 0 11 -7 18 -10 9 -11 8 -5 -6z"/>
<path d="M6670 2252 c0 -5 7 -9 15 -9 8 0 12 4 9 9 -3 4 -9 8 -15 8 -5 0 -9
-4 -9 -8z"/>
<path d="M6714 2241 c4 -5 0 -12 -6 -15 -7 -2 -3 -4 9 -2 12 1 26 6 30 11 5 4
2 5 -4 1 -7 -4 -13 -2 -13 3 0 6 -5 11 -11 11 -5 0 -8 -4 -5 -9z"/>
<path d="M6830 2240 c-8 -5 -10 -10 -5 -10 6 0 17 5 25 10 8 5 11 10 5 10 -5
0 -17 -5 -25 -10z"/>
<path d="M6755 2220 c-8 -13 3 -30 18 -30 7 0 6 4 -3 10 -13 9 -13 11 0 20 9
6 10 10 3 10 -6 0 -15 -4 -18 -10z"/>
<path d="M6810 2208 c0 -4 4 -8 9 -8 6 0 12 4 15 8 3 5 -1 9 -9 9 -8 0 -15 -4
-15 -9z"/>
<path d="M6870 2210 c0 -6 4 -9 9 -6 5 4 12 1 14 -4 3 -6 4 -5 3 2 -3 15 -26
23 -26 8z"/>
<path d="M6717 2199 c7 -7 15 -10 18 -7 3 3 -2 9 -12 12 -14 6 -15 5 -6 -5z"/>
<path d="M6855 2190 c5 -9 1 -10 -16 -6 -21 6 -22 6 -6 -5 13 -7 22 -8 29 -1
6 6 6 12 -3 17 -8 6 -10 4 -4 -5z"/>
<path d="M6913 2162 c-1 -22 0 -24 9 -8 6 10 6 22 2 26 -5 5 -10 -3 -11 -18z"/>
<path d="M6750 2166 c4 -4 16 -4 26 2 16 9 14 10 -8 9 -15 -1 -23 -6 -18 -11z"/>
<path d="M6934 2149 c-4 -7 -3 -9 4 -5 6 3 13 -2 15 -11 4 -16 5 -16 6 -1 1
21 -15 32 -25 17z"/>
<path d="M6891 2134 c0 -11 3 -14 6 -6 3 7 2 16 -1 19 -3 4 -6 -2 -5 -13z"/>
<path d="M6790 2130 c0 -5 5 -10 11 -10 5 0 7 5 4 10 -3 6 -8 10 -11 10 -2 0
-4 -4 -4 -10z"/>
<path d="M6850 2130 c0 -5 5 -10 11 -10 5 0 7 5 4 10 -3 6 -8 10 -11 10 -2 0
-4 -4 -4 -10z"/>
<path d="M6815 2111 c-9 -15 13 -23 32 -11 15 9 14 10 -6 4 -16 -4 -21 -3 -17
5 4 6 5 11 2 11 -3 0 -7 -4 -11 -9z"/>
<path d="M6748 2103 c6 -2 10 -8 8 -12 -3 -4 1 -8 9 -8 8 0 15 4 15 8 0 7 -26
20 -38 18 -4 0 -1 -3 6 -6z"/>
<path d="M6876 2097 c3 -10 9 -15 12 -12 3 3 0 11 -7 18 -10 9 -11 8 -5 -6z"/>
<path d="M6916 2096 c10 -8 21 -12 24 -10 5 6 -21 24 -34 24 -6 0 -1 -6 10
-14z"/>
<path d="M6961 2093 c7 -12 15 -20 18 -17 3 2 -3 12 -13 22 -17 16 -18 16 -5
-5z"/>
<path d="M6797 2083 c-10 -9 -9 -23 1 -23 5 0 9 7 9 15 0 17 -1 18 -10 8z"/>
<path d="M6895 2069 c-6 -8 -4 -10 5 -4 9 5 10 1 6 -16 -6 -21 -6 -22 5 -6 7
13 8 22 1 29 -6 6 -12 6 -17 -3z"/>
<path d="M6831 2061 c-8 -5 -9 -11 -3 -15 5 -3 12 1 16 9 6 17 6 18 -13 6z"/>
<path d="M6965 2050 c-3 -5 -1 -10 4 -10 6 0 11 5 11 10 0 6 -2 10 -4 10 -3 0
-8 -4 -11 -10z"/>
<path d="M6856 2041 c-4 -5 -1 -13 5 -17 8 -4 9 -3 5 4 -4 7 -3 12 3 12 5 0
12 -5 14 -10 3 -6 4 -5 3 2 -3 16 -23 22 -30 9z"/>
<path d="M6791 2032 c-1 -7 5 -15 13 -18 9 -3 12 -13 9 -22 -4 -9 -3 -14 1
-11 12 11 15 48 4 55 -7 4 -8 2 -4 -4 4 -7 3 -12 -3 -12 -5 0 -12 6 -14 13 -4
9 -6 9 -6 -1z"/>
<path d="M6847 2009 c7 -7 15 -10 18 -7 3 3 -2 9 -12 12 -14 6 -15 5 -6 -5z"/>
<path d="M6895 2010 c-3 -5 -1 -10 4 -10 6 0 11 5 11 10 0 6 -2 10 -4 10 -3 0
-8 -4 -11 -10z"/>
<path d="M6987 2013 c-3 -5 6 -9 20 -10 19 -1 22 1 12 8 -17 11 -26 11 -32 2z"/>
<path d="M6950 1999 c0 -5 -6 -7 -12 -3 -7 4 -10 3 -5 -1 4 -5 18 -10 30 -11
12 -2 16 0 9 2 -6 3 -10 10 -6 15 3 5 0 9 -5 9 -6 0 -11 -5 -11 -11z"/>
<path d="M6860 1986 c0 -2 7 -7 16 -10 8 -3 12 -2 9 4 -6 10 -25 14 -25 6z"/>
<path d="M6908 1982 c8 -5 13 -13 12 -18 -1 -5 4 -10 12 -12 11 -3 11 -2 0 6
-8 5 -13 13 -12 18 1 5 -4 10 -12 12 -11 3 -11 2 0 -6z"/>
<path d="M6986 1975 c-11 -8 -15 -15 -9 -15 6 0 16 7 23 15 16 19 11 19 -14 0z"/>
<path d="M7028 1983 c6 -2 10 -8 8 -12 -3 -4 1 -8 9 -8 8 0 15 4 15 8 0 7 -26
20 -38 18 -4 0 -1 -3 6 -6z"/>
<path d="M6828 1953 c7 -3 16 -2 19 1 4 3 -2 6 -13 5 -11 0 -14 -3 -6 -6z"/>
<path d="M6872 1946 c7 -8 15 -10 16 -5 2 5 9 6 15 2 7 -3 9 -2 4 2 -4 5 -17
10 -28 12 -16 2 -18 1 -7 -11z"/>
<path d="M7002 1930 c7 -10 14 -18 15 -16 6 6 -9 36 -18 36 -5 0 -4 -9 3 -20z"/>
<path d="M6845 1930 c-3 -6 1 -7 9 -4 18 7 21 14 7 14 -6 0 -13 -4 -16 -10z"/>
<path d="M6920 1925 c-19 -22 -8 -25 13 -3 9 10 13 18 8 18 -5 0 -14 -7 -21
-15z"/>
<path d="M7090 1930 c0 -5 5 -10 11 -10 5 0 7 5 4 10 -3 6 -8 10 -11 10 -2 0
-4 -4 -4 -10z"/>
<path d="M6955 1919 c-4 -6 -4 -13 -1 -16 3 -4 6 -1 6 5 0 7 5 12 11 12 5 0 7
-5 3 -12 -4 -7 -3 -8 5 -4 12 8 6 26 -9 26 -5 0 -12 -5 -15 -11z"/>
<path d="M7033 1916 c0 -15 21 -16 34 -1 4 4 2 5 -4 1 -7 -4 -13 -2 -13 3 0 6
-4 11 -8 11 -5 0 -9 -6 -9 -14z"/>
<path d="M6930 1901 c0 -6 4 -13 10 -16 6 -3 7 1 4 9 -7 18 -14 21 -14 7z"/>
<path d="M7075 1900 c-3 -5 -3 -10 2 -10 4 0 1 -5 -7 -11 -10 -7 -11 -9 -2 -7
8 2 13 7 12 12 -1 5 4 13 12 17 9 6 9 9 1 9 -6 0 -15 -4 -18 -10z"/>
<path d="M6877 1878 c20 -22 24 -23 16 -1 -5 12 -3 14 8 8 8 -4 11 -4 6 0 -4
5 -16 9 -27 10 -19 2 -19 1 -3 -17z"/>
<path d="M7000 1890 c8 -5 20 -10 25 -10 6 0 3 5 -5 10 -8 5 -19 10 -25 10 -5
0 -3 -5 5 -10z"/>
<path d="M6916 1863 c-6 -14 -5 -15 5 -6 7 7 10 15 7 18 -3 3 -9 -2 -12 -12z"/>
<path d="M6975 1871 c-9 -15 13 -23 32 -11 15 9 14 10 -6 4 -16 -4 -21 -3 -17
5 4 6 5 11 2 11 -3 0 -7 -4 -11 -9z"/>
<path d="M7093 1868 c-3 -6 -1 -8 5 -4 5 3 12 2 14 -4 2 -5 9 -6 16 -1 10 6 9
10 -7 14 -12 3 -24 0 -28 -5z"/>
<path d="M6940 1864 c0 -5 7 -18 15 -28 8 -11 15 -16 15 -10 0 5 -7 18 -15 28
-8 11 -15 16 -15 10z"/>
<path d="M7068 1842 c9 -10 19 -17 21 -16 6 5 -20 34 -30 34 -5 0 -1 -8 9 -18z"/>
<path d="M6934 1833 c4 -7 2 -13 -3 -13 -6 0 -11 -4 -11 -8 0 -5 6 -9 14 -9
15 0 16 21 1 34 -4 4 -5 2 -1 -4z"/>
<path d="M7000 1821 c0 -7 -5 -9 -12 -5 -7 5 -8 3 -3 -5 5 -9 10 -10 18 -2 6
6 8 14 4 18 -4 3 -7 1 -7 -6z"/>
<path d="M7066 1811 c4 -17 3 -21 -6 -16 -9 6 -11 4 -5 -4 5 -9 11 -9 17 -3 7
7 6 16 -1 29 -11 16 -11 15 -5 -6z"/>
<path d="M7120 1825 c0 -5 5 -17 10 -25 5 -8 10 -10 10 -5 0 6 -5 17 -10 25
-5 8 -10 11 -10 5z"/>
<path d="M7025 1807 c-15 -12 -16 -15 -4 -22 8 -5 11 -5 7 0 -4 4 0 14 10 21
23 18 11 18 -13 1z"/>
<path d="M6975 1790 c5 -9 1 -10 -16 -6 -23 7 -23 7 -3 -6 12 -7 19 -20 16
-28 -3 -8 -2 -12 2 -9 12 11 15 49 4 55 -7 5 -8 2 -3 -6z"/>
<path d="M7153 1778 c1 -15 6 -23 11 -18 4 4 4 16 -2 26 -9 16 -10 14 -9 -8z"/>
<path d="M7007 1769 c7 -7 15 -10 18 -7 3 3 -2 9 -12 12 -14 6 -15 5 -6 -5z"/>
<path d="M7076 1764 c-11 -8 -16 -14 -10 -14 13 0 39 18 34 24 -3 2 -14 -2
-24 -10z"/>
<path d="M7119 1763 c-13 -16 -12 -17 4 -4 16 13 21 21 13 21 -2 0 -10 -8 -17
-17z"/>
<path d="M6999 1748 c-5 -18 -6 -38 -1 -34 7 8 12 36 6 36 -2 0 -4 -1 -5 -2z"/>
<path d="M7130 1739 c0 -5 -6 -7 -12 -4 -7 4 -5 0 4 -8 10 -8 14 -18 10 -22
-4 -5 -2 -5 5 -2 6 4 9 16 6 27 -6 21 -13 27 -13 9z"/>
<path d="M7054 1732 c4 -3 14 -7 22 -8 9 -1 13 0 10 4 -4 3 -14 7 -22 8 -9 1
-13 0 -10 -4z"/>
<path d="M7013 1707 c-3 -6 -1 -7 5 -3 7 4 12 2 12 -4 0 -6 5 -8 10 -5 6 3 10
10 10 14 0 11 -30 9 -37 -2z"/>
<path d="M7066 1691 c4 -17 3 -21 -6 -16 -9 6 -11 4 -5 -4 5 -9 11 -9 17 -3 7
7 6 16 -1 29 -11 16 -11 15 -5 -6z"/>
<path d="M7140 1690 c-9 -6 -10 -10 -3 -10 6 0 15 5 18 10 8 12 4 12 -15 0z"/>
<path d="M7117 1669 c7 -7 15 -10 18 -7 3 3 -2 9 -12 12 -14 6 -15 5 -6 -5z"/>
<path d="M7110 1640 c-9 -6 -10 -10 -3 -10 6 0 15 5 18 10 8 12 4 12 -15 0z"/>
<path d="M7142 1605 c-6 -14 -10 -25 -8 -25 2 0 11 11 20 25 9 14 13 25 8 25
-5 0 -14 -11 -20 -25z"/>
<path d="M7080 1610 c-8 -5 -10 -10 -5 -10 6 0 17 5 25 10 8 5 11 10 5 10 -5
0 -17 -5 -25 -10z"/>
<path d="M7096 1592 c-3 -5 1 -9 9 -9 8 0 12 4 9 9 -3 4 -7 8 -9 8 -2 0 -6 -4
-9 -8z"/>
<path d="M7157 1563 c5 -12 3 -14 -7 -8 -8 5 -11 4 -7 -3 8 -12 32 -10 44 3 4
4 2 5 -4 1 -8 -4 -13 -1 -13 8 0 9 -4 16 -10 16 -5 0 -6 -7 -3 -17z"/>
<path d="M6149 7094 c-509 -207 -877 -572 -916 -908 -11 -97 -7 -194 11 -271
15 -65 74 -205 91 -217 6 -4 6 -8 2 -8 -7 0 85 -143 107 -166 6 -6 22 -26 36
-45 37 -50 131 -142 181 -176 55 -38 122 -61 162 -57 63 8 131 89 146 174 8
50 7 216 -2 275 -11 67 -39 172 -64 235 -7 19 -9 26 -18 70 -13 65 -11 111 6
148 18 41 75 102 94 102 18 0 67 49 60 60 -11 19 -50 9 -96 -23 -129 -89 -152
-193 -88 -387 18 -52 33 -104 35 -115 2 -11 6 -31 9 -45 17 -70 20 -94 19
-200 0 -96 -3 -123 -21 -162 -34 -75 -95 -100 -160 -64 -16 8 -37 19 -48 25
-22 10 -101 85 -154 145 -41 46 -141 185 -149 206 -3 8 -8 17 -12 20 -8 7 -55
116 -73 170 -34 103 -40 256 -13 359 72 281 346 556 751 752 76 37 143 65 147
63 4 -3 8 0 8 5 0 6 8 11 18 11 34 0 57 42 28 53 -7 3 -51 -10 -97 -29z"/>
<path d="M3783 6826 c-67 -34 -147 -106 -204 -184 -30 -40 -56 -78 -58 -85 -2
-7 -8 -14 -12 -17 -4 -3 -32 -55 -61 -116 l-53 -110 -30 8 c-17 5 -37 11 -45
13 -102 29 -174 38 -310 38 -159 1 -241 -10 -355 -47 -5 -1 -23 -6 -40 -11
-62 -16 -220 -99 -294 -155 -75 -57 -181 -162 -181 -179 0 -5 -7 -14 -15 -21
-29 -24 -106 -159 -144 -252 -43 -107 -67 -193 -86 -303 -3 -16 -7 -43 -10
-60 -6 -35 -18 -192 -19 -252 0 -24 -2 -43 -4 -43 -7 0 -117 31 -142 40 -24 9
-49 14 -140 29 -163 25 -290 -21 -290 -105 0 -65 113 -205 247 -307 29 -22 53
-44 53 -49 0 -5 -3 -7 -7 -5 -36 21 -329 26 -415 8 -32 -7 -61 -13 -65 -13
-40 -2 -130 -76 -139 -115 -9 -33 4 -93 28 -128 58 -84 239 -223 423 -325 71
-40 372 -189 432 -215 39 -17 41 -20 41 -62 0 -131 44 -221 129 -263 l38 -19
-75 6 c-113 9 -145 6 -193 -15 -73 -32 -130 -107 -143 -189 -12 -67 -3 -109
34 -169 29 -46 121 -123 151 -125 9 -1 39 -2 66 -3 52 -1 79 -11 70 -26 -3 -4
-7 -48 -10 -97 -5 -88 -9 -140 -21 -308 -3 -49 -8 -119 -9 -155 -2 -36 -4 -65
-5 -65 -1 0 -3 -34 -5 -75 -2 -42 -6 -109 -9 -150 -8 -105 -21 -291 -31 -450
-4 -73 -15 -237 -17 -249 -3 -30 6 -56 27 -77 23 -22 31 -25 81 -20 31 3 62
10 69 16 15 12 34 88 50 195 3 17 7 41 10 55 6 32 25 136 30 175 3 17 7 41 10
55 6 28 5 24 35 200 11 69 23 136 26 150 2 14 7 40 10 59 3 18 8 43 10 55 6
28 15 82 19 115 2 14 4 26 5 26 1 0 3 9 4 20 2 11 6 36 9 55 4 19 13 76 22
125 17 96 21 119 30 175 3 19 10 58 15 85 5 28 11 59 13 70 1 11 5 25 9 30 7
12 1482 14 1494 3 6 -7 25 -101 40 -198 2 -19 9 -57 14 -85 5 -27 12 -65 15
-82 3 -18 8 -48 11 -65 3 -18 14 -82 24 -143 19 -107 23 -132 36 -205 4 -19 8
-45 10 -57 7 -39 11 -65 33 -188 11 -66 23 -133 26 -150 3 -16 10 -52 15 -80
5 -27 12 -68 15 -90 45 -285 52 -308 102 -319 47 -11 106 2 126 25 15 19 17
36 12 138 -4 64 -8 139 -10 166 -2 28 -7 95 -10 150 -4 55 -8 125 -10 155 -3
30 -7 99 -10 153 -3 54 -7 119 -10 144 -4 42 -8 102 -21 303 -2 41 -6 98 -8
125 -2 28 -7 98 -10 157 -4 60 -9 117 -11 128 -2 11 -1 20 3 21 4 1 36 2 72 4
80 3 132 28 183 86 73 82 87 218 31 303 -29 45 -29 44 -94 83 -51 30 -126 37
-239 22 -35 -5 -66 -7 -68 -5 -3 2 11 12 31 21 68 32 140 130 165 220 22 84
24 119 26 455 2 333 3 346 23 383 12 20 22 40 23 45 1 4 6 18 12 32 5 14 11
30 13 35 2 6 24 63 49 128 38 99 83 241 100 322 3 11 7 31 10 45 32 142 46
269 49 435 3 159 -30 300 -109 468 -35 74 -152 258 -192 302 -10 11 -34 40
-54 65 -48 59 -189 202 -264 267 -99 85 -120 103 -125 104 -3 0 -12 2 -20 4
-9 1 -34 -7 -57 -19z m-603 -511 c14 -3 39 -8 55 -11 17 -2 54 -12 83 -22 58
-18 60 -23 32 -97 -6 -16 -12 -32 -12 -35 0 -3 -9 -29 -19 -59 -18 -50 -72
-264 -83 -321 -2 -14 -11 -63 -20 -108 -9 -46 -13 -88 -10 -93 3 -5 0 -9 -6
-9 -6 0 -9 -4 -6 -9 3 -5 2 -33 -4 -62 -9 -52 -16 -106 -25 -197 -2 -24 -13
-55 -23 -70 -23 -35 -202 -403 -202 -417 0 -3 -8 -24 -19 -48 -10 -23 -26 -63
-35 -88 -34 -96 -58 -102 -156 -42 -36 22 -92 55 -125 73 -33 18 -76 42 -95
53 -71 40 -367 185 -390 192 -3 0 -25 10 -50 21 -25 11 -69 29 -97 39 -32 11
-53 25 -54 34 -6 79 7 253 26 361 18 97 54 230 67 244 4 6 8 16 8 22 0 36 110
233 164 293 42 46 112 117 145 145 39 33 194 126 210 126 6 0 28 9 49 20 22
11 48 22 58 24 11 2 39 9 64 16 88 25 207 37 325 34 66 -2 131 -6 145 -9z
m1094 -2162 c-2 -356 -15 -424 -96 -518 -59 -67 -145 -100 -270 -104 -11 -1
-18 -9 -18 -21 0 -11 -3 -20 -7 -21 -5 0 -15 -2 -23 -3 -20 -4 -112 -15 -185
-21 -33 -3 -75 -8 -93 -10 -21 -3 -31 -1 -27 5 3 5 12 10 20 10 21 0 111 44
152 75 60 46 98 93 155 193 55 96 61 107 143 244 60 101 100 172 123 218 9 19
20 37 24 40 4 3 13 19 20 35 18 41 78 155 81 155 1 0 2 -125 1 -277z m-2276
-354 c80 -36 105 -47 162 -69 30 -12 69 -28 85 -35 56 -26 338 -132 425 -161
25 -8 54 -19 65 -24 11 -5 49 -19 85 -30 36 -12 70 -26 75 -32 7 -7 7 -9 0 -5
-6 3 -51 8 -100 12 -50 4 -103 8 -120 9 -16 2 -68 7 -115 10 -47 4 -103 9
-125 12 -22 2 -74 7 -115 10 -41 3 -86 7 -100 9 -14 2 -31 4 -39 4 -8 1 -11 8
-8 22 6 22 1 25 -58 33 -61 7 -88 21 -123 60 -37 42 -56 103 -53 169 1 32 -1
32 59 6z m-23 -324 c39 -3 88 -8 110 -11 22 -2 72 -6 110 -9 75 -5 144 -11
241 -20 34 -3 88 -8 120 -11 32 -2 84 -7 114 -10 30 -2 78 -6 105 -9 158 -13
202 -17 225 -20 32 -5 199 -18 225 -18 25 0 158 13 182 17 10 2 52 7 93 11 41
4 86 9 100 11 54 6 186 20 280 28 30 3 75 8 100 11 106 13 127 15 170 20 137
15 171 17 187 10 10 -5 20 -9 23 -9 24 -4 84 -52 104 -83 21 -33 24 -48 21
-106 -3 -80 -32 -131 -97 -174 l-41 -28 -1257 0 -1257 0 -46 35 c-109 81 -126
209 -42 307 36 42 101 73 140 67 11 -1 52 -5 90 -9z m307 -485 c-2 -19 -6 -43
-9 -55 -2 -11 -6 -31 -8 -45 -2 -14 -8 -50 -14 -80 -6 -30 -13 -71 -16 -90 -3
-19 -19 -109 -35 -200 -16 -91 -31 -181 -34 -200 -3 -19 -8 -48 -11 -65 -3
-16 -10 -55 -15 -85 -16 -95 -20 -114 -25 -140 -3 -14 -10 -54 -16 -90 -10
-68 -16 -101 -23 -135 -2 -11 -7 -40 -11 -65 -4 -25 -9 -54 -11 -65 -3 -11 -7
-35 -10 -54 -3 -18 -8 -43 -10 -55 -4 -23 -11 -64 -18 -109 -7 -39 -24 -57
-55 -57 -50 0 -53 9 -47 116 4 55 8 128 10 164 2 36 7 106 11 155 7 99 12 178
20 300 3 44 7 112 10 150 2 39 7 106 10 150 3 44 8 118 11 165 3 47 7 110 9
140 2 30 7 96 10 145 4 50 7 97 7 105 -1 33 7 35 139 35 l134 0 -3 -35z m1884
15 c2 -11 6 -69 9 -130 3 -60 7 -128 10 -150 3 -22 7 -87 11 -145 3 -58 7
-130 9 -160 11 -173 16 -251 20 -305 2 -33 7 -96 10 -140 10 -172 15 -252 20
-305 12 -159 16 -260 8 -261 -4 0 -17 -2 -28 -5 -43 -9 -62 4 -70 48 -5 24 -9
45 -10 48 0 3 -4 26 -8 51 -8 50 -9 54 -32 184 -8 50 -18 104 -21 120 -3 17
-7 39 -9 50 -4 29 -64 375 -70 405 -3 14 -7 39 -10 55 -2 17 -6 39 -8 50 -5
20 -26 145 -32 187 -2 13 -5 32 -8 43 -3 11 -8 40 -12 65 -4 25 -9 54 -11 65
-3 11 -7 36 -9 55 -3 19 -12 69 -19 110 -7 41 -12 77 -11 80 2 3 63 5 136 5
124 0 132 -1 135 -20z"/>
<path d="M5150 5901 c-64 -79 -191 -187 -204 -174 -3 4 -6 2 -6 -4 0 -20 -107
-45 -177 -41 -58 3 -68 1 -71 -14 -8 -41 117 -53 210 -20 65 23 138 70 205
133 68 65 90 91 98 117 5 18 3 22 -17 22 -13 0 -30 -9 -38 -19z"/>
<path d="M819 5436 c-2 -3 -19 -7 -37 -11 -17 -3 -68 -21 -112 -41 -216 -95
-427 -252 -479 -357 -55 -111 73 -163 268 -110 106 28 115 28 71 2 -32 -20
-192 -176 -250 -245 -214 -253 -273 -346 -273 -431 0 -48 15 -71 58 -89 59
-24 160 2 260 69 33 22 62 43 65 46 3 4 39 32 80 63 85 64 134 88 183 88 38 0
60 18 48 38 -12 19 -99 12 -146 -11 -39 -19 -124 -76 -155 -103 -51 -46 -89
-74 -99 -74 -6 0 -11 -3 -11 -8 0 -16 -121 -63 -166 -65 -74 -2 -87 36 -44
129 48 103 352 456 474 549 83 63 200 68 317 12 41 -19 87 -47 103 -61 34 -30
51 -33 60 -9 9 22 -47 71 -130 112 -62 31 -96 41 -152 45 -36 3 -56 16 -26 17
10 0 28 2 39 5 26 5 112 16 150 19 45 4 45 4 45 20 0 29 -33 33 -140 19 -57
-7 -111 -16 -120 -20 -8 -3 -25 -8 -37 -10 -12 -2 -77 -20 -143 -39 -135 -39
-204 -48 -255 -34 -58 16 -48 49 38 133 161 159 445 306 589 306 101 0 273
-75 395 -172 93 -73 92 -73 110 -56 14 14 12 19 -23 53 -88 83 -258 179 -374
210 -46 12 -172 20 -181 11z"/>
<path d="M8916 3305 c-108 -65 -191 -128 -263 -201 -87 -88 -99 -110 -107
-199 -4 -39 -8 -81 -11 -95 -5 -35 -16 -101 -19 -125 -8 -49 -17 -103 -21
-125 -3 -14 -7 -37 -10 -52 -3 -16 -12 -56 -20 -90 -8 -35 -16 -74 -19 -88
-17 -98 -115 -450 -167 -600 -24 -71 -26 -87 -15 -98 11 -11 20 -5 52 40 65
90 84 119 84 128 0 6 5 10 10 10 6 0 10 7 10 15 0 8 4 15 9 15 5 0 14 14 21
30 7 17 16 30 21 30 5 0 9 5 9 12 0 6 6 19 14 27 15 17 21 28 139 233 63 111
167 315 173 338 0 3 11 28 23 55 42 92 116 298 125 349 2 12 11 48 19 81 20
76 27 125 34 248 6 115 2 118 -91 62z"/>
</g>
</svg>
